<?xml version="1.0" encoding="utf-8"?>
<!-- Generator: Adobe Illustrator 17.1.0, SVG Export Plug-In . SVG Version: 6.00 Build 0)  -->
<!DOCTYPE svg PUBLIC "-//W3C//DTD SVG 1.1//EN" "http://www.w3.org/Graphics/SVG/1.1/DTD/svg11.dtd">
<svg version="1.1" id="Layer_1" xmlns="http://www.w3.org/2000/svg" xmlns:xlink="http://www.w3.org/1999/xlink" x="0px" y="0px"
	 width="100px" height="100px" viewBox="0 0 100 100" enable-background="new 0 0 100 100" xml:space="preserve">
<rect fill="#004794" width="100" height="100"/>
<path fill="#FFFFFF" d="M66.5,60c-2.8,0-5.4,0.9-7.5,2.4L42.3,52.1c0.1-0.7,0.2-1.4,0.2-2.1c0-0.7-0.1-1.4-0.2-2.1L59,37.6
	c2.1,1.5,4.7,2.4,7.5,2.4c7.2,0,13-5.8,13-13c0-7.2-5.8-13-13-13c-7.2,0-13,5.8-13,13c0,0.7,0.1,1.4,0.2,2.1L37,39.4
	c-2.1-1.5-4.7-2.4-7.5-2.4c-7.2,0-13,5.8-13,13c0,7.2,5.8,13,13,13c2.8,0,5.4-0.9,7.5-2.4l16.7,10.4c-0.1,0.7-0.2,1.4-0.2,2.1
	c0,7.2,5.8,13,13,13c7.2,0,13-5.8,13-13C79.5,65.8,73.7,60,66.5,60z"/>
</svg>
