<?xml version="1.0" encoding="utf-8"?>
<!-- Generator: Adobe Illustrator 17.1.0, SVG Export Plug-In . SVG Version: 6.00 Build 0)  -->
<!DOCTYPE svg PUBLIC "-//W3C//DTD SVG 1.1//EN" "http://www.w3.org/Graphics/SVG/1.1/DTD/svg11.dtd">
<svg version="1.1" id="Layer_1" xmlns="http://www.w3.org/2000/svg" xmlns:xlink="http://www.w3.org/1999/xlink" x="0px" y="0px"
	 width="100px" height="100px" viewBox="0 0 100 100" enable-background="new 0 0 100 100" xml:space="preserve">
<rect fill="#004794" width="100" height="100"/>
<g>
	<path fill="#FFFFFF" d="M18.1,36.9h63.8c2.1,0,1.8-2.3,0.7-2.7c-1.1-0.4-12.9-4.8-15-4.8h-3.4V18.1H35.8v11.2h-3.4
		c-2.1,0-13.9,4.5-15,4.8C16.3,34.6,16,36.9,18.1,36.9z M82.6,41H17.4c-2.1,0-4.1,2.4-4.1,4.5v13.1c0,2.1,2.1,4.5,4.1,4.5h7.4
		l-3.3,18.8h57l-3.3-18.8h7.4c2.1,0,4.1-2.4,4.1-4.5V45.5C86.8,43.4,84.7,41,82.6,41z M29,74.4L34.2,50h31.5L71,74.4H29z"/>
</g>
</svg>
