<?xml version="1.0" encoding="utf-8"?>
<!-- Generator: Adobe Illustrator 17.1.0, SVG Export Plug-In . SVG Version: 6.00 Build 0)  -->
<!DOCTYPE svg PUBLIC "-//W3C//DTD SVG 1.1//EN" "http://www.w3.org/Graphics/SVG/1.1/DTD/svg11.dtd">
<svg version="1.1" id="Layer_1" xmlns="http://www.w3.org/2000/svg" xmlns:xlink="http://www.w3.org/1999/xlink" x="0px" y="0px"
	 width="100px" height="100px" viewBox="0 0 100 100" enable-background="new 0 0 100 100" xml:space="preserve">
<rect fill="#004794" width="100" height="100"/>
<path fill="#FFFFFF" d="M27.5,76.3c0,4.1,3.4,7.5,7.5,7.5c4.1,0,7.5-3.4,7.5-7.5c0-4.1-3.4-7.5-7.5-7.5
	C30.9,68.8,27.5,72.1,27.5,76.3z M65,76.3c0,4.1,3.4,7.5,7.5,7.5c4.1,0,7.5-3.4,7.5-7.5c0-4.1-3.4-7.5-7.5-7.5
	C68.4,68.8,65,72.1,65,76.3z M40.8,58.5l41.5-11.9c0.8-0.2,1.4-1.1,1.4-1.9V24.1H30.9v-6.4c0-0.8-0.7-1.5-1.5-1.5H17.7
	c-0.8,0-1.5,0.7-1.5,1.5v6h7.3l7.4,34l0.7,3.5v5.6c0,0.8,0.7,1.5,1.5,1.5H35h37.5h9.8c0.8,0,1.5-0.7,1.5-1.5v-5.6H41.6
	C37.3,61.3,37.2,59.6,40.8,58.5z"/>
</svg>
