<?xml version="1.0" encoding="utf-8"?>
<!-- Generator: Adobe Illustrator 17.1.0, SVG Export Plug-In . SVG Version: 6.00 Build 0)  -->
<!DOCTYPE svg PUBLIC "-//W3C//DTD SVG 1.1//EN" "http://www.w3.org/Graphics/SVG/1.1/DTD/svg11.dtd">
<svg version="1.1" id="Layer_1" xmlns="http://www.w3.org/2000/svg" xmlns:xlink="http://www.w3.org/1999/xlink" x="0px" y="0px"
	 width="100px" height="100px" viewBox="0 0 100 100" enable-background="new 0 0 100 100" xml:space="preserve">
<path fill="#FFFFFF" d="M75.165,31.232c-0.081,0-0.151,0.023-0.231,0.023c-1.341-3.503-4.709-6.001-8.685-6.001
	c-0.055,0-0.114-0.574-0.171-0.574C65.341,21.202,62.26,18,58.559,18c-0.005,0-0.009,0-0.017,0c-1.138-2-3.411-3.136-6.063-3.136
	c-3.456,0-6.287,2.872-6.745,6.203c-1.097-0.505-2.307-0.657-3.588-0.657c-1.668,0-3.215,0.568-4.531,1.392
	c-1.148-0.824-2.546-1.281-4.064-1.281c-3.878,0-7.014,3.157-7.014,7.031c0,0.441,0.051,0.884,0.128,1.306
	c-0.079,0-0.152-0.019-0.235-0.019c-4.635,0-8.494,3.305-9.366,7.68c-2.761,1.935-4.573,5.122-4.573,8.75
	c0,5.607,4.34,10.165,9.84,10.601c0.408,0.901,0.939,1.714,1.54,2.482c1.122,5.67,6.113,9.949,12.115,9.949
	c1.545,0,2.954-0.315,4.31-0.844L42,68.675V84h14V66.144l2-1.18v2.339c2,0.606,3.078,1,4.745,1c6.824,0,12.388-5.537,12.388-12.359
	c6.822,0,12.368-5.53,12.368-12.357C87.5,36.764,81.987,31.232,75.165,31.232z"/>
</svg>
