<?xml version="1.0" encoding="utf-8"?>
<!-- Generator: Adobe Illustrator 17.1.0, SVG Export Plug-In . SVG Version: 6.00 Build 0)  -->
<!DOCTYPE svg PUBLIC "-//W3C//DTD SVG 1.1//EN" "http://www.w3.org/Graphics/SVG/1.1/DTD/svg11.dtd">
<svg version="1.1" id="Layer_1" xmlns="http://www.w3.org/2000/svg" xmlns:xlink="http://www.w3.org/1999/xlink" x="0px" y="0px"
	 width="100px" height="100px" viewBox="0 0 100 100" enable-background="new 0 0 100 100" xml:space="preserve">
<g>
	<path fill="#FFFFFF" d="M33.485,31.806C19.51,37.989,10.344,51.134,10.344,51.134c0.074,0.084,6.945,7.949,12.633,5.877
		l0.193,1.404c-0.717,0.258-1.449,0.375-2.191,0.375c-3.93,0-8.033-3.254-10.154-5.232c3.002,3.754,11.117,12.986,21.666,18
		C40.364,58.138,34.715,36.152,33.485,31.806z M24.95,52.402c-1.936,0-3.512-1.574-3.512-3.512c0-1.939,1.576-3.51,3.512-3.51
		c1.939,0,3.514,1.57,3.514,3.51C28.463,50.827,26.889,52.402,24.95,52.402z"/>
	<path fill="#FFFFFF" d="M78.817,46.806C72.664,40.027,60.407,28.9,46.295,28.9c-3.943,0-7.742,0.877-11.305,2.279
		c1.207,4.096,7.279,26.705-1.012,41.045c3.852,1.643,7.996,2.689,12.316,2.689c14.957,0,27.818-12.494,33.561-19.064l11.34,6.473
		v-20.83L78.817,46.806z"/>
</g>
</svg>
