<?xml version="1.0" encoding="utf-8"?>
<!-- Generator: Adobe Illustrator 17.1.0, SVG Export Plug-In . SVG Version: 6.00 Build 0)  -->
<!DOCTYPE svg PUBLIC "-//W3C//DTD SVG 1.1//EN" "http://www.w3.org/Graphics/SVG/1.1/DTD/svg11.dtd">
<svg version="1.1" id="Layer_1" xmlns="http://www.w3.org/2000/svg" xmlns:xlink="http://www.w3.org/1999/xlink" x="0px" y="0px"
	 width="100px" height="100px" viewBox="0 0 100 100" enable-background="new 0 0 100 100" xml:space="preserve">
<g>
	<path fill="#FFFFFF" d="M81.511,57.953c8.907-8.907,7.724-24.578-2.629-34.931C68.528,12.668,52.863,11.49,43.956,20.397
		c-8.469,8.469-27.624,32.791-15.78,48.851l-5.241,5.241c-2.011-2.011-5.084-2.21-6.856-0.439c-1.774,1.774-1.575,4.848,0.436,6.859
		c0.853,0.853,1.889,1.357,2.935,1.545c0.191,1.049,0.696,2.086,1.545,2.935c2.012,2.012,5.083,2.209,6.857,0.435
		c1.771-1.771,1.574-4.842-0.438-6.854l5.254-5.254C48.191,84.842,73.061,66.403,81.511,57.953z M51.568,20.527
		c5.469-5.469,16.923-3.27,25.001,4.808c8.082,8.082,10.277,19.532,4.807,25.001c-5.473,5.473-16.919,3.274-25.001-4.808
		C48.298,37.45,46.095,26,51.568,20.527z"/>
	<path fill="#FFFFFF" d="M74.215,42.485c2.403-2.403,1.039-7.663-3.047-11.749c-4.084-4.084-9.351-5.454-11.754-3.051
		c-2.404,2.404-1.033,7.67,3.051,11.754C66.552,43.525,71.811,44.89,74.215,42.485z"/>
</g>
</svg>
