<?xml version="1.0" encoding="utf-8"?>
<!-- Generator: Adobe Illustrator 17.1.0, SVG Export Plug-In . SVG Version: 6.00 Build 0)  -->
<!DOCTYPE svg PUBLIC "-//W3C//DTD SVG 1.1//EN" "http://www.w3.org/Graphics/SVG/1.1/DTD/svg11.dtd">
<svg version="1.1" id="Layer_1" xmlns="http://www.w3.org/2000/svg" xmlns:xlink="http://www.w3.org/1999/xlink" x="0px" y="0px"
	 width="100px" height="100px" viewBox="0 0 100 100" enable-background="new 0 0 100 100" xml:space="preserve">
<path fill="#004996" d="M79.777,56.666c-0.086-0.034-0.18-0.039-0.266-0.063c-2.133-1.642-5.389-2.45-8.965-2.11
	c0.603-1.978,0.93-4.078,0.93-6.254v-9.061c0.211,0.133,0.43,0.262,0.66,0.355c0.883,1.472,2.537,2.403,4.365,2.242
	c2.553-0.219,4.441-2.47,4.219-5.021l-0.67-7.702c-0.223-2.553-1.734-18.587-4.287-18.368c-2.557,0.228-1.703,16.619-1.477,19.174
	l-0.006,0.011l-3.713-2.56C67.92,19.3,59.717,15.174,49.998,15.174c-9.832,0-18.108,4.235-20.652,12.438l-3.273,2.256l-0.004-0.011
	c0.223-2.555,1.078-18.946-1.475-19.174c-2.557-0.219-4.066,15.815-4.289,18.368l-0.668,7.702c-0.229,2.551,1.668,4.802,4.217,5.021
	c1.828,0.161,3.486-0.771,4.361-2.242c0.109-0.04,0.205-0.11,0.307-0.165v8.871c0,2.64,0.5,5.16,1.371,7.497
	c-3.305-1.072-6.539-0.962-8.848,0.211c-0.152,0.027-0.313,0.043-0.463,0.091c-4.18,1.356-4.91,10.677-1.633,20.841
	c3.283,10.158,9.332,17.299,13.504,15.949c4.111-1.325,4.881-10.369,1.789-20.324c0.078-0.022,0.156-0.036,0.231-0.053
	c3.221,7.676,8.959,12.808,15.525,12.808c6.303,0,11.855-4.707,15.137-11.866c-3.186,9.488-2.703,18.078,1.221,19.53
	c4.119,1.52,10.465-5.358,14.174-15.363C84.229,67.54,83.9,58.186,79.777,56.666z"/>
</svg>
