<?xml version="1.0" encoding="utf-8"?>
<!-- Generator: Adobe Illustrator 17.1.0, SVG Export Plug-In . SVG Version: 6.00 Build 0)  -->
<!DOCTYPE svg PUBLIC "-//W3C//DTD SVG 1.1//EN" "http://www.w3.org/Graphics/SVG/1.1/DTD/svg11.dtd">
<svg version="1.1" id="Layer_1" xmlns="http://www.w3.org/2000/svg" xmlns:xlink="http://www.w3.org/1999/xlink" x="0px" y="0px"
	 width="180px" height="60px" viewBox="0 0 180 60" enable-background="new 0 0 180 60" xml:space="preserve">
<g>
	<path fill-rule="evenodd" clip-rule="evenodd" fill="#004995" d="M15.987,45.895h21.397c0.25,0,0.25,0.125,0,0.25
		c-2.377,1.126-5.881,4.63-5.881,4.63c-2.377,2.378-4.255,3.879-8.384,3.879H2.598c-0.125,0-0.125-0.25,0-0.25
		c2.252-1.251,5.631-4.755,5.631-4.755C9.605,48.023,12.483,45.895,15.987,45.895L15.987,45.895z"/>
	<path fill-rule="evenodd" clip-rule="evenodd" fill="#004995" d="M156.635,45.895h21.523c0.125,0,0.125,0.125,0,0.25
		c-2.503,1.126-5.881,4.63-5.881,4.63c-2.503,2.378-4.38,3.879-8.384,3.879h-20.521c-0.125,0-0.125-0.25,0-0.25
		c2.252-1.251,5.631-4.755,5.631-4.755C150.379,48.023,153.132,45.895,156.635,45.895L156.635,45.895z"/>
	<path fill-rule="evenodd" clip-rule="evenodd" fill="#004995" d="M51.149,45.895h21.398c0.25,0,0.25,0.125,0,0.25
		c-2.377,1.126-5.881,4.63-5.881,4.63c-2.378,2.378-4.255,3.879-8.384,3.879H37.885c-0.25,0-0.25-0.25-0.125-0.25
		c2.252-1.251,5.631-4.755,5.631-4.755C44.767,48.023,47.645,45.895,51.149,45.895L51.149,45.895z"/>
	<path fill-rule="evenodd" clip-rule="evenodd" fill="#004995" d="M86.311,45.895h21.398c0.25,0,0.25,0.125,0,0.25
		c-2.377,1.126-5.881,4.63-5.881,4.63c-2.377,2.378-4.254,3.879-8.258,3.879H73.047c-0.125,0-0.125-0.25-0.125-0.25
		c2.377-1.251,5.631-4.755,5.631-4.755C79.929,48.023,82.807,45.895,86.311,45.895L86.311,45.895z"/>
	<path fill-rule="evenodd" clip-rule="evenodd" fill="#004995" d="M121.473,45.895h21.523c0.125,0,0.125,0.125-0.125,0.25
		c-2.377,1.126-5.881,4.63-5.881,4.63c-2.377,2.378-4.255,3.879-8.259,3.879h-20.521c-0.125,0-0.125-0.25,0-0.25
		c2.252-1.251,5.631-4.755,5.631-4.755C115.092,48.023,117.97,45.895,121.473,45.895L121.473,45.895z"/>
	<path fill-rule="evenodd" clip-rule="evenodd" fill="#E30520" d="M127.354,4.101c-13.514,0-22.524,7.007-22.524,17.644
		c0,9.76,8.259,16.267,20.522,16.267c4.004,0,7.508-0.501,11.637-1.627v-8.133c-2.878,3.253-6.382,4.505-10.136,4.505
		c-7.258,0-12.263-4.755-12.263-11.762c0-6.882,5.13-11.887,12.388-11.887c3.879,0,7.008,1.502,9.51,4.129V4.977
		C133.861,4.477,130.608,4.101,127.354,4.101L127.354,4.101z"/>
	<path fill-rule="evenodd" clip-rule="evenodd" fill="#E30520" d="M26.498,9.857c5.005,0,11.012,1.001,13.514,3.128V5.228H4.475
		v7.758c2.502-2.127,7.883-3.003,13.639-3.003v21.272c0,3.128-0.25,4.004-1.502,5.631H28c-1.251-1.627-1.502-2.503-1.502-5.631
		V9.857L26.498,9.857z"/>
	<path fill-rule="evenodd" clip-rule="evenodd" fill="#E30520" d="M62.786,17.491c-2.002,0.751-5.756,0.876-7.633,0.876H52.15V9.983
		h4.004c3.629,0,9.76,0.751,12.138,2.878V5.228H42.39c1.251,1.502,1.502,2.503,1.502,5.506v20.522c0,3.128-0.25,4.004-1.377,5.631
		h27.529v-7.758c-3.754,2.878-11.012,2.878-13.889,2.878H52.15v-8.884h2.878c2.002,0,5.631,0.25,7.758,1.001V17.491L62.786,17.491z"
		/>
	<path fill-rule="evenodd" clip-rule="evenodd" fill="#E30520" d="M101.202,6.229c-4.129-1.376-9.51-2.127-13.639-2.127
		c-7.508,0-14.766,2.377-14.766,10.386c0,13.765,22.524,6.507,22.524,15.016c0,2.753-4.004,3.879-7.258,3.879
		c-5.756,0-9.76-1.001-14.765-4.255v7.007c3.754,1.251,8.884,2.002,14.39,2.002c7.758,0,15.016-2.252,15.016-10.386
		c0-14.515-22.399-8.008-22.399-15.016c0-2.878,3.629-3.879,6.757-3.879c5.255,0,11.011,1.627,14.14,4.755V6.229L101.202,6.229z"/>
	<path fill-rule="evenodd" clip-rule="evenodd" fill="#E30520" d="M159.013,4.602c-12.138,0-20.772,7.007-20.772,16.893
		c0,9.76,7.758,16.142,19.145,16.142c12.263,0,20.772-6.757,20.772-16.768C178.158,11.109,170.4,4.602,159.013,4.602L159.013,4.602z
		 M158.137,32.882c-6.507,0-10.636-5.256-10.636-11.762c0-6.507,4.129-11.763,10.636-11.763c6.382,0,10.636,5.256,10.636,11.763
		C168.773,27.626,164.518,32.882,158.137,32.882L158.137,32.882z"/>
</g>
</svg>
