<?xml version="1.0" encoding="utf-8"?>
<!-- Generator: Adobe Illustrator 17.1.0, SVG Export Plug-In . SVG Version: 6.00 Build 0)  -->
<!DOCTYPE svg PUBLIC "-//W3C//DTD SVG 1.1//EN" "http://www.w3.org/Graphics/SVG/1.1/DTD/svg11.dtd">
<svg version="1.1" id="Layer_1" xmlns="http://www.w3.org/2000/svg" xmlns:xlink="http://www.w3.org/1999/xlink" x="0px" y="0px"
	 width="180px" height="60px" viewBox="0 0 180 60" enable-background="new 0 0 180 60" xml:space="preserve">
<g>
	<path fill="#FFFFFF" d="M16,45.9h21.4c0.2,0,0.2,0.1,0,0.2c-2.4,1.1-5.9,4.6-5.9,4.6c-2.4,2.4-4.3,3.9-8.4,3.9H2.6
		c-0.1,0-0.1-0.2,0-0.2c2.3-1.3,5.6-4.8,5.6-4.8C9.6,48,12.5,45.9,16,45.9L16,45.9z"/>
	<path fill="#FFFFFF" d="M156.6,45.9h21.5c0.1,0,0.1,0.1,0,0.2c-2.5,1.1-5.9,4.6-5.9,4.6c-2.5,2.4-4.4,3.9-8.4,3.9h-20.5
		c-0.1,0-0.1-0.2,0-0.2c2.3-1.3,5.6-4.8,5.6-4.8C150.4,48,153.1,45.9,156.6,45.9L156.6,45.9z"/>
	<path fill="#FFFFFF" d="M51.1,45.9h21.4c0.2,0,0.2,0.1,0,0.2c-2.4,1.1-5.9,4.6-5.9,4.6c-2.4,2.4-4.3,3.9-8.4,3.9H37.9
		c-0.2,0-0.2-0.2-0.1-0.2c2.3-1.3,5.6-4.8,5.6-4.8C44.8,48,47.6,45.9,51.1,45.9L51.1,45.9z"/>
	<path fill="#FFFFFF" d="M86.3,45.9h21.4c0.2,0,0.2,0.1,0,0.2c-2.4,1.1-5.9,4.6-5.9,4.6c-2.4,2.4-4.3,3.9-8.3,3.9H73
		c-0.1,0-0.1-0.2-0.1-0.2c2.4-1.3,5.6-4.8,5.6-4.8C79.9,48,82.8,45.9,86.3,45.9L86.3,45.9z"/>
	<path fill="#FFFFFF" d="M121.5,45.9H143c0.1,0,0.1,0.1-0.1,0.2c-2.4,1.1-5.9,4.6-5.9,4.6c-2.4,2.4-4.3,3.9-8.3,3.9h-20.5
		c-0.1,0-0.1-0.2,0-0.2c2.3-1.3,5.6-4.8,5.6-4.8C115.1,48,118,45.9,121.5,45.9L121.5,45.9z"/>
	<path fill="#FFFFFF" d="M127.4,4.1c-13.5,0-22.5,7-22.5,17.6c0,9.8,8.3,16.3,20.5,16.3c4,0,7.5-0.5,11.6-1.6v-8.1
		c-2.9,3.3-6.4,4.5-10.1,4.5c-7.3,0-12.3-4.8-12.3-11.8c0-6.9,5.1-11.9,12.4-11.9c3.9,0,7,1.5,9.5,4.1V5
		C133.9,4.5,130.6,4.1,127.4,4.1L127.4,4.1z"/>
	<path fill="#FFFFFF" d="M26.5,9.9c5,0,11,1,13.5,3.1V5.2H4.5V13c2.5-2.1,7.9-3,13.6-3v21.3c0,3.1-0.2,4-1.5,5.6H28
		c-1.3-1.6-1.5-2.5-1.5-5.6V9.9L26.5,9.9z"/>
	<path fill="#FFFFFF" d="M62.8,17.5c-2,0.8-5.8,0.9-7.6,0.9h-3V10h4c3.6,0,9.8,0.8,12.1,2.9V5.2H42.4c1.3,1.5,1.5,2.5,1.5,5.5v20.5
		c0,3.1-0.2,4-1.4,5.6H70v-7.8C66.3,32,59,32,56.2,32h-4v-8.9H55c2,0,5.6,0.2,7.8,1V17.5L62.8,17.5z"/>
	<path fill="#FFFFFF" d="M101.2,6.2c-4.1-1.4-9.5-2.1-13.6-2.1c-7.5,0-14.8,2.4-14.8,10.4c0,13.8,22.5,6.5,22.5,15
		c0,2.8-4,3.9-7.3,3.9c-5.8,0-9.8-1-14.8-4.3v7c3.8,1.3,8.9,2,14.4,2c7.8,0,15-2.3,15-10.4c0-14.5-22.4-8-22.4-15
		c0-2.9,3.6-3.9,6.8-3.9c5.3,0,11,1.6,14.1,4.8L101.2,6.2L101.2,6.2z"/>
	<path fill="#FFFFFF" d="M159,4.6c-12.1,0-20.8,7-20.8,16.9c0,9.8,7.8,16.1,19.1,16.1c12.3,0,20.8-6.8,20.8-16.8
		C178.2,11.1,170.4,4.6,159,4.6L159,4.6z M158.1,32.9c-6.5,0-10.6-5.3-10.6-11.8c0-6.5,4.1-11.8,10.6-11.8c6.4,0,10.6,5.3,10.6,11.8
		C168.8,27.6,164.5,32.9,158.1,32.9L158.1,32.9z"/>
</g>
</svg>
